<?xml version="1.0" encoding="utf-8"?><svg xmlns="http://www.w3.org/2000/svg" xmlns:xlink="http://www.w3.org/1999/xlink"><symbol viewBox="0 0 16 16" fill="#fff" fill-rule="evenodd" clip-rule="evenodd" stroke-linejoin="round" stroke-miterlimit="1.414" id="behance" xmlns="http://www.w3.org/2000/svg"><path d="M4.64 2.987c.47 0 .896.04 1.284.125.386.082.715.218.994.406.274.187.49.436.642.75.15.31.226.697.226 1.155 0 .495-.113.91-.338 1.24-.226.33-.56.602-1.004.812.606.174 1.054.48 1.352.916.3.44.445.97.445 1.58 0 .5-.09.93-.28 1.29-.19.37-.45.67-.78.9-.32.23-.7.4-1.12.51-.41.11-.84.17-1.28.17H0V2.99h4.64zm6.69 8.133c.293.286.717.43 1.266.43.394 0 .736-.1 1.022-.3.284-.197.456-.41.523-.63h1.73c-.27.857-.7 1.47-1.27 1.838-.57.37-1.26.555-2.06.555-.56 0-1.06-.09-1.52-.27-.45-.18-.83-.435-1.15-.766a3.471 3.471 0 0 1-.72-1.188c-.17-.46-.25-.97-.25-1.52 0-.54.09-1.03.27-1.49.18-.47.43-.86.75-1.2.33-.34.71-.6 1.16-.8.45-.2.94-.29 1.49-.29.61 0 1.13.11 1.59.35.45.23.82.55 1.11.94.3.39.5.84.63 1.35.13.5.17 1.03.14 1.59H10.9c0 .56.19 1.09.48 1.38zm-6.85.033c.213 0 .416-.02.607-.062.194-.04.366-.11.51-.2a.964.964 0 0 0 .353-.39c.087-.16.13-.38.13-.64 0-.5-.143-.86-.427-1.08-.285-.21-.664-.32-1.13-.32H2.167v2.71H4.48zm9.1-3.777c-.234-.258-.628-.397-1.108-.397-.313 0-.572.05-.78.16a1.432 1.432 0 0 0-.757.89c-.05.17-.08.33-.09.47h3.185c-.047-.5-.217-.87-.45-1.13zm-9.22-.413c.384 0 .702-.09.953-.276.25-.182.37-.482.37-.895 0-.23-.04-.418-.12-.565a.9.9 0 0 0-.334-.342c-.14-.084-.3-.142-.48-.173-.18-.035-.37-.05-.56-.05H2.16v2.3h2.2zm6.085-3.316h3.99v.972h-3.99v-.98z"/></symbol><symbol viewBox="0 0 16 16" fill="#fff" fill-rule="evenodd" clip-rule="evenodd" stroke-linejoin="round" stroke-miterlimit="1.414" id="facebook" xmlns="http://www.w3.org/2000/svg"><path d="M15.117 0H.883A.883.883 0 0 0 0 .883v14.234c0 .488.395.883.883.883h7.663V9.804H6.46V7.39h2.086V5.607c0-2.066 1.262-3.19 3.106-3.19.883 0 1.642.064 1.863.094v2.16h-1.28c-1 0-1.195.48-1.195 1.18v1.54h2.39l-.31 2.42h-2.08V16h4.077a.883.883 0 0 0 .883-.883V.883A.883.883 0 0 0 15.117 0" fill-rule="nonzero"/></symbol><symbol viewBox="0 0 16 16" fill="#fff" fill-rule="evenodd" clip-rule="evenodd" stroke-linejoin="round" stroke-miterlimit="1.414" id="github" xmlns="http://www.w3.org/2000/svg"><path d="M8 0a8 8 0 0 0-8 8 8 8 0 0 0 5.47 7.59c.4.075.547-.172.547-.385 0-.19-.007-.693-.01-1.36-2.226.483-2.695-1.073-2.695-1.073-.364-.924-.89-1.17-.89-1.17-.725-.496.056-.486.056-.486.803.056 1.225.824 1.225.824.714 1.223 1.873.87 2.33.665.072-.517.278-.87.507-1.07-1.777-.2-3.644-.888-3.644-3.953 0-.873.31-1.587.823-2.147-.09-.202-.36-1.015.07-2.117 0 0 .67-.215 2.2.82a7.67 7.67 0 0 1 2-.27 7.67 7.67 0 0 1 2 .27c1.52-1.035 2.19-.82 2.19-.82.43 1.102.16 1.915.08 2.117a3.1 3.1 0 0 1 .82 2.147c0 3.073-1.87 3.75-3.65 3.947.28.24.54.73.54 1.48 0 1.07-.01 1.93-.01 2.19 0 .21.14.46.55.38A7.972 7.972 0 0 0 16 8a8 8 0 0 0-8-8"/></symbol><symbol viewBox="0 0 16 16" fill="#fff" fill-rule="evenodd" clip-rule="evenodd" stroke-linejoin="round" stroke-miterlimit="1.414" id="instagram" xmlns="http://www.w3.org/2000/svg"><path d="M8 0C5.827 0 5.555.01 4.702.048 3.85.088 3.27.222 2.76.42a3.908 3.908 0 0 0-1.417.923c-.445.444-.72.89-.923 1.417-.198.51-.333 1.09-.372 1.942C.008 5.555 0 5.827 0 8s.01 2.445.048 3.298c.04.852.174 1.433.372 1.942.204.526.478.973.923 1.417.444.445.89.72 1.417.923.51.198 1.09.333 1.942.372.853.04 1.125.048 3.298.048s2.445-.01 3.298-.048c.852-.04 1.433-.174 1.942-.372a3.908 3.908 0 0 0 1.417-.923c.445-.444.72-.89.923-1.417.198-.51.333-1.09.372-1.942.04-.853.048-1.125.048-3.298s-.01-2.445-.048-3.298c-.04-.852-.174-1.433-.372-1.942a3.908 3.908 0 0 0-.923-1.417A3.886 3.886 0 0 0 13.24.42c-.51-.198-1.09-.333-1.942-.372C10.445.008 10.173 0 8 0zm0 1.44c2.136 0 2.39.01 3.233.048.78.036 1.203.166 1.485.276.374.145.64.318.92.598.28.28.453.546.598.92.11.282.24.705.276 1.485.038.844.047 1.097.047 3.233s-.01 2.39-.05 3.233c-.04.78-.17 1.203-.28 1.485-.15.374-.32.64-.6.92-.28.28-.55.453-.92.598-.28.11-.71.24-1.49.276-.85.038-1.1.047-3.24.047s-2.39-.01-3.24-.05c-.78-.04-1.21-.17-1.49-.28a2.49 2.49 0 0 1-.92-.6c-.28-.28-.46-.55-.6-.92-.11-.28-.24-.71-.28-1.49-.03-.84-.04-1.1-.04-3.23s.01-2.39.04-3.24c.04-.78.17-1.21.28-1.49.14-.38.32-.64.6-.92.28-.28.54-.46.92-.6.28-.11.7-.24 1.48-.28.85-.03 1.1-.04 3.24-.04zm0 2.452a4.108 4.108 0 1 0 0 8.215 4.108 4.108 0 0 0 0-8.215zm0 6.775a2.667 2.667 0 1 1 0-5.334 2.667 2.667 0 0 1 0 5.334zm5.23-6.937a.96.96 0 1 1-1.92 0 .96.96 0 0 1 1.92 0z"/></symbol><symbol viewBox="0 0 16 16" fill="#fff" fill-rule="evenodd" clip-rule="evenodd" stroke-linejoin="round" stroke-miterlimit="1.414" id="linkedin" xmlns="http://www.w3.org/2000/svg"><path d="M13.632 13.635h-2.37V9.922c0-.886-.018-2.025-1.234-2.025-1.235 0-1.424.964-1.424 1.96v3.778h-2.37V6H8.51v1.04h.03c.318-.6 1.092-1.233 2.247-1.233 2.4 0 2.845 1.58 2.845 3.637v4.188zM3.558 4.955a1.376 1.376 0 1 1-.001-2.751 1.376 1.376 0 0 1 .001 2.751zm1.188 8.68H2.37V6h2.376v7.635zM14.816 0H1.18C.528 0 0 .516 0 1.153v13.694C0 15.484.528 16 1.18 16h13.635c.652 0 1.185-.516 1.185-1.153V1.153C16 .516 15.467 0 14.815 0z" fill-rule="nonzero"/></symbol><symbol viewBox="0 0 16 16" fill="#fff" fill-rule="evenodd" clip-rule="evenodd" stroke-linejoin="round" stroke-miterlimit="1.414" id="twitter" xmlns="http://www.w3.org/2000/svg"><path d="M16 3.038a6.62 6.62 0 0 1-1.885.517 3.299 3.299 0 0 0 1.443-1.816c-.634.37-1.337.64-2.085.79a3.282 3.282 0 0 0-5.593 2.99 9.307 9.307 0 0 1-6.766-3.42A3.222 3.222 0 0 0 .67 3.75c0 1.14.58 2.143 1.46 2.732a3.278 3.278 0 0 1-1.487-.41v.04c0 1.59 1.13 2.918 2.633 3.22a3.336 3.336 0 0 1-1.475.056 3.29 3.29 0 0 0 3.07 2.28 6.578 6.578 0 0 1-4.85 1.359 9.332 9.332 0 0 0 5.04 1.474c6.04 0 9.34-5 9.34-9.33 0-.14 0-.28-.01-.42a6.63 6.63 0 0 0 1.64-1.7z" fill-rule="nonzero"/></symbol></svg>